{"title":"Ghostbusters 2016 TS XviD-BiGDADDYVAiN","uid":15372653,"size":1199476223,"categoryP":"video","categoryS":"movies","magnet":"?xt=urn:btih:c57d25a82d68f8324e41458e30f064966ae2a5e2&amp;dn=Ghostbusters+2016+TS+XviD-BiGDADDYVAiN&amp;tr=udp%3A%2F%2Ftracker.leechers-paradise.org%3A6969&amp;tr=udp%3A%2F%2Fzer0day.ch%3A1337&amp;tr=udp%3A%2F%2Fopen.demonii.com%3A1337&amp;tr=udp%3A%2F%2Ftracker.coppersurfer.tk%3A6969&amp;tr=udp%3A%2F%2Fexodus.desync.com%3A6969","seeders":5,"leechers":6,"uploader":"makintos13","files":3,"time":1469159604,"description":"Ghostbusters 2016 TS XviD-BiGDADDYVAiN\r\n\r\nScreens:\r\n \nhttps://imgmak.com/T8P\r\n \nhttps://imgmak.com/T8Y\r\n \nhttps://imgmak.com/T80\r\n \nhttps://imgmak.com/T8A\r\n \nhttps://imgmak.com/T8D\r\n \nhttps://imgmak.com/T8f\r\n\r\nP R E S E N T S . . . . \r\n\r\nGhostbusters.2016.TS.XviD-BiGDADDYVAiN\r\n\r\niMDB........: http://www.imdb.com/title/tt1289401/\r\n\r\n\r\n\r\nT E C H N i C A L . i N F O . . .\r\n\r\nBasic Information\r\nFormat                      : AVI\r\nFormat/Info                 : Audio Video Interleave\r\nFile size                   : 1.10 GiB\r\nDuration                    : 1 h 55 min\r\nOverall bit rate            : 1 366 kb/s\r\nWriting application         : VirtualDubMod 1.5.10.2 (build 2540/release)\r\nWriting library             : VirtualDubMod build 2540/release\r\n\r\nVideo\r\nID                          : 0\r\nFormat                      : MPEG-4 Visual\r\nFormat profile              : Advanced   \r\nFormat settings, BVOP       : 2\r\nFormat settings, QPel       : No\r\nFormat settings, GMC        : No warppoints\r\nFormat settings, Matrix     : Default (H.263)\r\nMuxing mode                 : Packed bitstream\r\nCodec ID                    : XVID\r\nCodec ID/Hint               : XviD\r\nDuration                    : 1 h 55 min\r\nBit rate                    : 1 163 kb/s\r\nWidth                       : 736 pixels\r\nHeight                      : 352 pixels\r\nDisplay aspect ratio        : 2.091\r\nFrame rate                  : 29.970 (30000/1001) FPS\r\nColor space                 : YUV\r\nChroma subsampling          : 4:2:0\r\nBit depth                   : 8 bits\r\nScan type                   : Progressive\r\nCompression mode            : Lossy\r\nBits/(Pixel*Frame)          : 0.150\r\nStream size                 : 960 MiB (85%)\r\nWriting library             : XviD 67\r\n\r\nAudio\r\nID                          : 1\r\nFormat                      : MPEG Audio\r\nFormat version              : Version 1\r\nFormat profile              : Layer 3\r\nMode                        : Joint stereo\r\nMode extension              : MS Stereo\r\nCodec ID                    : 55\r\nCodec ID/Hint               : MP3\r\nDuration                    : 1 h 55 min\r\nBit rate mode               : Constant\r\nBit rate                    : 192 kb/s\r\nChannel(s)                  : 2 channels\r\nSampling rate               : 48.0 kHz\r\nCompression mode            : Lossy\r\nStream size                 : 159 MiB (14%)\r\nAlignment                   : Aligned on interleaves\r\nInterleave, duration        : 33  ms (1.00 video frame)\r\nInterleave, preload duratio : 504  ms\r\n\r\n\r\n\r\n\r\n\r\nE N C O D E R S . N O T E S . . .  \r\n\r\n       \r\n\r\nSOURCE......: ViDEO...DADDY\r\n............: AUDiO...DADDY\r\nSAMPLE......: Yippers \r\n\r\n\r\nDISCLAiMER!!! no encoders were hurt durning the encode of this video... maybe some feelings but just giving you all the love your deserve\r\n\r\nps hear there is a bigger better copy coming out... we will wait by the phone till the shiners are called again... LOL!!!!!!","torrent":{"xt":"urn:btih:c57d25a82d68f8324e41458e30f064966ae2a5e2","amp;dn":"Ghostbusters+2016+TS+XviD-BiGDADDYVAiN","amp;tr":["udp%3A%2F%2Ftracker.leechers-paradise.org%3A6969","udp%3A%2F%2Fzer0day.ch%3A1337","udp%3A%2F%2Fopen.demonii.com%3A1337","udp%3A%2F%2Ftracker.coppersurfer.tk%3A6969","udp%3A%2F%2Fexodus.desync.com%3A6969"],"infoHash":"c57d25a82d68f8324e41458e30f064966ae2a5e2","infoHashBuffer":{"type":"Buffer","data":[197,125,37,168,45,104,248,50,78,65,69,142,48,240,100,150,106,226,165,226]},"announce":[],"urlList":[]}}